<svg width="33" height="39" viewBox="0 0 33 39" fill="none" xmlns="http://www.w3.org/2000/svg">
<g clip-path="url(#clip0)">
<path d="M24.09 39H3.41536C2.50955 39 1.64078 38.6411 1.00028 38.0024C0.359772 37.3636 0 36.4973 0 35.594V10.894C0 9.99067 0.359772 9.12433 1.00028 8.48558C1.64078 7.84683 2.50955 7.48801 3.41536 7.48801C3.81813 7.48801 4.20435 7.64756 4.48915 7.93159C4.77396 8.21561 4.934 8.60081 4.934 9.00248C4.934 9.40415 4.77396 9.78938 4.48915 10.0734C4.20435 10.3574 3.81813 10.517 3.41536 10.517C3.3151 10.517 3.21892 10.5567 3.14803 10.6274C3.07713 10.6981 3.03727 10.794 3.03727 10.894V35.594C3.03727 35.694 3.07713 35.7899 3.14803 35.8606C3.21892 35.9313 3.3151 35.971 3.41536 35.971H24.09C24.1903 35.971 24.2865 35.9313 24.3574 35.8606C24.4283 35.7899 24.468 35.694 24.468 35.594V33.9235C24.468 33.5218 24.6281 33.1366 24.9129 32.8526C25.1977 32.5685 25.584 32.409 25.9868 32.409C26.3895 32.409 26.7758 32.5685 27.0606 32.8526C27.3454 33.1366 27.5054 33.5218 27.5054 33.9235V35.594C27.5054 36.4973 27.1455 37.3636 26.505 38.0024C25.8645 38.6411 24.9958 39 24.09 39Z" fill="#1A1853"/>
<path d="M29.5911 31.499H8.9164C8.01059 31.499 7.1419 31.1401 6.50139 30.5014C5.86089 29.8626 5.50104 28.9963 5.50104 28.093V3.39298C5.50104 2.48965 5.86089 1.62335 6.50139 0.984598C7.1419 0.345849 8.01059 -0.0130157 8.9164 -0.0130157H29.5911C30.4969 -0.0130157 31.3656 0.345849 32.0061 0.984598C32.6466 1.62335 33.0065 2.48965 33.0065 3.39298V28.093C33.0065 28.9963 32.6466 29.8626 32.0061 30.5014C31.3656 31.1401 30.4969 31.499 29.5911 31.499ZM8.9164 3.02251C8.81614 3.02251 8.71996 3.06222 8.64906 3.13292C8.57817 3.20362 8.53839 3.2995 8.53839 3.39948V28.0995C8.53839 28.1995 8.57817 28.2954 8.64906 28.3661C8.71996 28.4368 8.81614 28.4765 8.9164 28.4765H29.5911C29.6913 28.4765 29.7875 28.4368 29.8584 28.3661C29.9293 28.2954 29.9692 28.1995 29.9692 28.0995V3.39948C29.9692 3.2995 29.9293 3.20362 29.8584 3.13292C29.7875 3.06222 29.6913 3.02251 29.5911 3.02251H8.9164Z" fill="#00A2FF"/>
<path d="M24.4616 17.264H14.033C13.6302 17.264 13.244 17.1044 12.9592 16.8204C12.6744 16.5364 12.5143 16.1512 12.5143 15.7495C12.5143 15.3478 12.6744 14.9626 12.9592 14.6786C13.244 14.3946 13.6302 14.235 14.033 14.235H24.4616C24.8644 14.235 25.2506 14.3946 25.5355 14.6786C25.8203 14.9626 25.9803 15.3478 25.9803 15.7495C25.9803 16.1512 25.8203 16.5364 25.5355 16.8204C25.2506 17.1044 24.8644 17.264 24.4616 17.264Z" fill="#1A1853"/>
<path d="M24.4616 22.9385H14.033C13.6302 22.9385 13.244 22.7789 12.9592 22.4949C12.6744 22.2109 12.5143 21.8257 12.5143 21.424C12.5143 21.0223 12.6744 20.6371 12.9592 20.3531C13.244 20.0691 13.6302 19.9095 14.033 19.9095H24.4616C24.8644 19.9095 25.2506 20.0691 25.5355 20.3531C25.8203 20.6371 25.9803 21.0223 25.9803 21.424C25.9803 21.8257 25.8203 22.2109 25.5355 22.4949C25.2506 22.7789 24.8644 22.9385 24.4616 22.9385Z" fill="#1A1853"/>
<path d="M24.4616 11.5895H14.033C13.6302 11.5895 13.244 11.4299 12.9592 11.1459C12.6744 10.8619 12.5143 10.4767 12.5143 10.075C12.5143 9.67333 12.6744 9.28809 12.9592 9.00407C13.244 8.72004 13.6302 8.56049 14.033 8.56049H24.4616C24.8644 8.56049 25.2506 8.72004 25.5355 9.00407C25.8203 9.28809 25.9803 9.67333 25.9803 10.075C25.9803 10.4767 25.8203 10.8619 25.5355 11.1459C25.2506 11.4299 24.8644 11.5895 24.4616 11.5895Z" fill="#1A1853"/>
</g>
<defs>
<clipPath id="clip0">
<rect width="33" height="39" fill="white"/>
</clipPath>
</defs>
</svg>
