<svg width="22" height="26" viewBox="0 0 22 26" fill="none" xmlns="http://www.w3.org/2000/svg">
<g opacity="0.3">
<g clip-path="url(#clip0)">
<path d="M16.06 26H2.27691C1.67303 26 1.09386 25.7608 0.666852 25.3349C0.239848 24.9091 0 24.3316 0 23.7293V7.26267C0 6.66045 0.239848 6.08289 0.666852 5.65705C1.09386 5.23122 1.67303 4.992 2.27691 4.992C2.54542 4.992 2.8029 5.09838 2.99277 5.28773C3.18264 5.47708 3.28933 5.73387 3.28933 6.00165C3.28933 6.26943 3.18264 6.52626 2.99277 6.7156C2.8029 6.90495 2.54542 7.01133 2.27691 7.01133C2.21007 7.01133 2.14595 7.0378 2.09868 7.08493C2.05142 7.13207 2.02485 7.19601 2.02485 7.26267V23.7293C2.02485 23.796 2.05142 23.8599 2.09868 23.907C2.14595 23.9542 2.21007 23.9807 2.27691 23.9807H16.06C16.1269 23.9807 16.191 23.9542 16.2382 23.907C16.2855 23.8599 16.312 23.796 16.312 23.7293V22.6157C16.312 22.3479 16.4187 22.0911 16.6086 21.9017C16.7985 21.7124 17.056 21.606 17.3245 21.606C17.593 21.606 17.8505 21.7124 18.0404 21.9017C18.2302 22.0911 18.3369 22.3479 18.3369 22.6157V23.7293C18.3369 24.3316 18.097 24.9091 17.67 25.3349C17.243 25.7608 16.6639 26 16.06 26Z" fill="#1A1853"/>
<path d="M19.7274 20.9993H5.94427C5.34039 20.9993 4.76127 20.7601 4.33426 20.3343C3.90726 19.9084 3.66736 19.3309 3.66736 18.7286V2.26198C3.66736 1.65976 3.90726 1.08223 4.33426 0.656393C4.76127 0.230561 5.34039 -0.00868225 5.94427 -0.00868225H19.7274C20.3313 -0.00868225 20.9104 0.230561 21.3374 0.656393C21.7644 1.08223 22.0043 1.65976 22.0043 2.26198V18.7286C22.0043 19.3309 21.7644 19.9084 21.3374 20.3343C20.9104 20.7601 20.3313 20.9993 19.7274 20.9993ZM5.94427 2.015C5.87742 2.015 5.81331 2.04148 5.76604 2.08861C5.71878 2.13574 5.69226 2.19966 5.69226 2.26632V18.733C5.69226 18.7996 5.71878 18.8636 5.76604 18.9107C5.81331 18.9579 5.87742 18.9843 5.94427 18.9843H19.7274C19.7942 18.9843 19.8583 18.9579 19.9056 18.9107C19.9529 18.8636 19.9794 18.7996 19.9794 18.733V2.26632C19.9794 2.19966 19.9529 2.13574 19.9056 2.08861C19.8583 2.04148 19.7942 2.015 19.7274 2.015H5.94427Z" fill="#00A2FF"/>
<path d="M16.3077 11.5093H9.35532C9.0868 11.5093 8.82933 11.403 8.63946 11.2136C8.44959 11.0243 8.3429 10.7674 8.3429 10.4997C8.3429 10.2319 8.44959 9.97508 8.63946 9.78573C8.82933 9.59638 9.0868 9.49001 9.35532 9.49001H16.3077C16.5762 9.49001 16.8338 9.59638 17.0236 9.78573C17.2135 9.97508 17.3202 10.2319 17.3202 10.4997C17.3202 10.7674 17.2135 11.0243 17.0236 11.2136C16.8338 11.403 16.5762 11.5093 16.3077 11.5093Z" fill="#1A1853"/>
<path d="M16.3077 15.2923H9.35532C9.0868 15.2923 8.82933 15.1859 8.63946 14.9966C8.44959 14.8072 8.3429 14.5504 8.3429 14.2827C8.3429 14.0149 8.44959 13.7581 8.63946 13.5687C8.82933 13.3794 9.0868 13.273 9.35532 13.273H16.3077C16.5762 13.273 16.8338 13.3794 17.0236 13.5687C17.2135 13.7581 17.3202 14.0149 17.3202 14.2827C17.3202 14.5504 17.2135 14.8072 17.0236 14.9966C16.8338 15.1859 16.5762 15.2923 16.3077 15.2923Z" fill="#1A1853"/>
<path d="M16.3077 7.72633H9.35532C9.0868 7.72633 8.82933 7.61996 8.63946 7.43061C8.44959 7.24126 8.3429 6.98444 8.3429 6.71666C8.3429 6.44888 8.44959 6.19206 8.63946 6.00271C8.82933 5.81336 9.0868 5.70699 9.35532 5.70699H16.3077C16.5762 5.70699 16.8338 5.81336 17.0236 6.00271C17.2135 6.19206 17.3202 6.44888 17.3202 6.71666C17.3202 6.98444 17.2135 7.24126 17.0236 7.43061C16.8338 7.61996 16.5762 7.72633 16.3077 7.72633Z" fill="#1A1853"/>
</g>
</g>
<defs>
<clipPath id="clip0">
<rect width="22" height="26" fill="white"/>
</clipPath>
</defs>
</svg>
