<svg width="23" height="24" viewBox="0 0 23 24" fill="none" xmlns="http://www.w3.org/2000/svg">
<path d="M14.3752 22.0419H1.42441C1.31384 22.0419 1.25819 22.0253 1.23521 22.0159C1.21809 22.009 1.20196 21.9999 1.1782 21.9722L1.15321 21.943L1.12605 21.9158C1.02723 21.817 1 21.7392 1 21.6175V1.42441C1 1.31384 1.01663 1.25819 1.02597 1.23521C1.03292 1.21809 1.04201 1.20196 1.06973 1.1782C1.24935 1.02424 1.36213 1 1.42441 1H21.5756C21.6862 1 21.7418 1.01663 21.7648 1.02597C21.7819 1.03292 21.798 1.04201 21.8218 1.06973L21.8468 1.09889L21.8739 1.12605C21.9728 1.22488 22 1.30266 22 1.42441V14.3333H16.7996C16.1698 14.3333 15.5401 14.5315 15.0608 15.0718C14.5813 15.5646 14.3752 16.1528 14.3752 16.7996V22.0419ZM18.3024 18.3024H21.5517C21.4836 18.3976 21.4095 18.4841 21.3293 18.5643L18.5643 21.3293C18.4843 21.4093 18.397 21.4842 18.3024 21.5532V18.3024Z" stroke="#312BC1" stroke-width="2"/>
</svg>
