<svg width="27" height="26" viewBox="0 0 27 26" fill="none" xmlns="http://www.w3.org/2000/svg">
<g opacity="0.3">
<g clip-path="url(#clip0)">
<path d="M1.04474 25.749C0.769326 25.749 0.505192 25.6432 0.310443 25.4549C0.115693 25.2666 0.00628204 25.0113 0.00628204 24.745C-0.0037729 23.0243 0.411052 21.3261 1.21628 19.7916C2.02151 18.257 3.1939 16.9304 4.63602 15.922C6.07814 14.9136 7.74834 14.2525 9.50785 13.9937C11.2674 13.7348 13.0654 13.8857 14.7524 14.4337C14.8825 14.4758 15.0028 14.5422 15.1063 14.6292C15.2099 14.7162 15.2947 14.8221 15.3559 14.9407C15.4172 15.0594 15.4536 15.1886 15.4632 15.3209C15.4728 15.4532 15.4554 15.5861 15.4119 15.7118C15.3684 15.8376 15.2997 15.9539 15.2097 16.054C15.1197 16.1541 15.0102 16.2361 14.8875 16.2953C14.7647 16.3545 14.6311 16.3898 14.4942 16.399C14.3574 16.4083 14.22 16.3915 14.0899 16.3494C12.7183 15.9052 11.2568 15.7837 9.82691 15.9949C8.39697 16.2062 7.03974 16.744 5.86785 17.5639C4.69595 18.3838 3.74319 19.462 3.08859 20.7092C2.434 21.9563 2.09645 23.3364 2.10397 24.7349C2.10534 24.8676 2.0795 24.9993 2.02792 25.1222C1.97635 25.2452 1.90008 25.3571 1.80351 25.4514C1.70694 25.5457 1.592 25.6205 1.46533 25.6716C1.33865 25.7227 1.20276 25.749 1.06551 25.749H1.04474Z" fill="#1A1853"/>
<path d="M11.1821 12.753C9.87758 12.753 8.60234 12.379 7.51763 11.6784C6.43291 10.9777 5.58745 9.98177 5.08813 8.81655C4.58881 7.65132 4.45806 6.36912 4.71241 5.13206C4.96676 3.895 5.59479 2.75862 6.51709 1.86663C7.4394 0.974636 8.61455 0.367081 9.89397 0.120776C11.1734 -0.125528 12.4996 0.000478654 13.705 0.482869C14.9103 0.96526 15.9407 1.78237 16.6657 2.83088C17.3908 3.8794 17.778 5.11223 17.7784 6.3735C17.7773 8.06478 17.0821 9.68652 15.8453 10.8826C14.6086 12.0787 12.9314 12.7514 11.1821 12.753ZM11.1821 2.02007C10.2907 2.02007 9.41937 2.27563 8.67821 2.75443C7.93705 3.23323 7.35938 3.91379 7.01826 4.71001C6.67714 5.50622 6.5879 6.38234 6.7618 7.2276C6.9357 8.07285 7.36494 8.84929 7.99524 9.45869C8.62554 10.0681 9.42861 10.4831 10.3029 10.6512C11.1771 10.8194 12.0833 10.7331 12.9068 10.4033C13.7304 10.0735 14.4343 9.51496 14.9295 8.79838C15.4247 8.08181 15.689 7.23934 15.689 6.37752C15.6885 5.22183 15.2136 4.1136 14.3685 3.29622C13.5235 2.47884 12.3775 2.01915 11.1821 2.01809V2.02007Z" fill="#00A2FF"/>
<path d="M24.2647 25.998H18.4493C17.7235 25.9975 17.0275 25.7185 16.5143 25.2222C16.001 24.726 15.7125 24.0532 15.7119 23.3514V17.7289C15.7125 17.0272 16.001 16.3543 16.5143 15.8581C17.0275 15.3619 17.7235 15.0829 18.4493 15.0823H24.2647C24.9905 15.0829 25.6865 15.3619 26.1997 15.8581C26.7129 16.3543 27.0015 17.0272 27.0021 17.7289V23.3514C27.0015 24.0532 26.7129 24.726 26.1997 25.2222C25.6865 25.7185 24.9905 25.9975 24.2647 25.998ZM18.4493 17.0984C18.2774 17.0984 18.1126 17.1644 17.9911 17.2819C17.8696 17.3994 17.8013 17.5588 17.8013 17.7249V23.3474C17.8013 23.5136 17.8696 23.6729 17.9911 23.7904C18.1126 23.9079 18.2774 23.9739 18.4493 23.9739H24.2647C24.4365 23.9739 24.6014 23.9079 24.7229 23.7904C24.8444 23.6729 24.9127 23.5136 24.9127 23.3474V17.7249C24.9127 17.5588 24.8444 17.3994 24.7229 17.2819C24.6014 17.1644 24.4365 17.0984 24.2647 17.0984H18.4493Z" fill="#1A1853"/>
<path d="M23.1494 19.5301H22.3975V18.8032C22.3975 18.5353 22.2875 18.2784 22.0915 18.089C21.8956 17.8996 21.6299 17.7932 21.3528 17.7932C21.0758 17.7932 20.81 17.8996 20.6141 18.089C20.4182 18.2784 20.3081 18.5353 20.3081 18.8032V19.5301H19.5563C19.2792 19.5301 19.0135 19.6366 18.8176 19.826C18.6217 20.0154 18.5116 20.2723 18.5116 20.5402C18.5116 20.8081 18.6217 21.0649 18.8176 21.2544C19.0135 21.4438 19.2792 21.5502 19.5563 21.5502H20.3081V22.2771C20.3081 22.545 20.4182 22.8019 20.6141 22.9913C20.81 23.1807 21.0758 23.2872 21.3528 23.2872C21.6299 23.2872 21.8956 23.1807 22.0915 22.9913C22.2875 22.8019 22.3975 22.545 22.3975 22.2771V21.5502H23.1494C23.4264 21.5502 23.6922 21.4438 23.8881 21.2544C24.084 21.0649 24.1941 20.8081 24.1941 20.5402C24.1941 20.2723 24.084 20.0154 23.8881 19.826C23.6922 19.6366 23.4264 19.5301 23.1494 19.5301Z" fill="#00A2FF"/>
</g>
</g>
<defs>
<clipPath id="clip0">
<rect width="27" height="26" fill="white"/>
</clipPath>
</defs>
</svg>
