<svg width="33" height="32" viewBox="0 0 33 32" fill="none" xmlns="http://www.w3.org/2000/svg">
<g clip-path="url(#clip0)">
<path d="M1.27683 31.471C0.940213 31.471 0.617382 31.3417 0.379355 31.1116C0.141328 30.8814 0.00760345 30.5693 0.00760345 30.2439C-0.00468593 28.1408 0.502322 26.0652 1.48649 24.1897C2.47066 22.3141 3.90358 20.6928 5.66617 19.4603C7.42876 18.2278 9.47012 17.4198 11.6206 17.1034C13.7711 16.787 15.9687 16.9714 18.0307 17.6412C18.1897 17.6926 18.3367 17.7738 18.4632 17.8802C18.5898 17.9865 18.6934 18.1159 18.7683 18.2609C18.8431 18.406 18.8877 18.5639 18.8994 18.7256C18.9111 18.8873 18.8898 19.0496 18.8366 19.2034C18.7835 19.3571 18.6995 19.4992 18.5895 19.6216C18.4796 19.7439 18.3457 19.8442 18.1957 19.9165C18.0457 19.9889 17.8824 20.0319 17.7151 20.0433C17.5479 20.0546 17.3799 20.034 17.2209 19.9826C15.5445 19.4397 13.7583 19.2912 12.0106 19.5494C10.2629 19.8075 8.60405 20.4649 7.17174 21.467C5.73942 22.469 4.57493 23.7869 3.77487 25.3112C2.97481 26.8355 2.56225 28.5223 2.57144 30.2316C2.57312 30.3938 2.54153 30.5547 2.4785 30.705C2.41546 30.8553 2.32224 30.992 2.20422 31.1073C2.08619 31.2225 1.9457 31.314 1.79088 31.3764C1.63606 31.4388 1.46996 31.471 1.30221 31.471H1.27683Z" fill="#1A1853"/>
<path d="M13.6671 15.587C12.0726 15.587 10.514 15.13 9.18824 14.2736C7.86249 13.4172 6.82914 12.2 6.21886 10.7758C5.60858 9.35164 5.44877 7.7845 5.75965 6.27253C6.07052 4.76057 6.83811 3.37166 7.96537 2.28145C9.09263 1.19124 10.5289 0.448675 12.0927 0.147636C13.6564 -0.153403 15.2774 0.000605367 16.7506 0.590194C18.2238 1.17978 19.4831 2.17848 20.3693 3.45999C21.2554 4.7415 21.7287 6.2483 21.7292 7.78985C21.7279 9.85697 20.8781 11.8391 19.3665 13.301C17.855 14.7629 15.8051 15.5851 13.6671 15.587ZM13.6671 2.469C12.5776 2.469 11.5126 2.78135 10.6067 3.36655C9.70088 3.95175 8.99483 4.78354 8.57791 5.7567C8.16099 6.72985 8.05191 7.80066 8.26446 8.83375C8.477 9.86684 9.00162 10.8158 9.77199 11.5606C10.5424 12.3055 11.5239 12.8127 12.5924 13.0182C13.661 13.2237 14.7685 13.1182 15.7751 12.7151C16.7816 12.312 17.6419 11.6294 18.2472 10.7536C18.8525 9.87778 19.1755 8.8481 19.1755 7.79476C19.1749 6.38226 18.5944 5.02776 17.5616 4.02874C16.5287 3.02972 15.128 2.46787 13.6671 2.46657V2.469Z" fill="#00A2FF"/>
<path d="M29.6568 31.7753H22.5491C21.662 31.7747 20.8114 31.4337 20.1841 30.8272C19.5568 30.2207 19.2041 29.3983 19.2034 28.5406V21.6687C19.2041 20.811 19.5568 19.9886 20.1841 19.3821C20.8114 18.7756 21.662 18.4346 22.5491 18.434H29.6568C30.5439 18.4346 31.3945 18.7756 32.0218 19.3821C32.6491 19.9886 33.0018 20.811 33.0025 21.6687V28.5406C33.0018 29.3983 32.6491 30.2207 32.0218 30.8272C31.3945 31.4337 30.5439 31.7747 29.6568 31.7753ZM22.5491 20.898C22.3391 20.898 22.1376 20.9787 21.9891 21.1223C21.8406 21.2659 21.7571 21.4607 21.7571 21.6638V28.5357C21.7571 28.7388 21.8406 28.9336 21.9891 29.0772C22.1376 29.2208 22.3391 29.3014 22.5491 29.3014H29.6568C29.8669 29.3014 30.0683 29.2208 30.2168 29.0772C30.3654 28.9336 30.4488 28.7388 30.4488 28.5357V21.6638C30.4488 21.4607 30.3654 21.2659 30.2168 21.1223C30.0683 20.9787 29.8669 20.898 29.6568 20.898H22.5491Z" fill="#1A1853"/>
<path d="M28.2937 23.8702H27.3748V22.9817C27.3748 22.6543 27.2402 22.3403 27.0008 22.1088C26.7613 21.8773 26.4366 21.7472 26.0979 21.7472C25.7593 21.7472 25.4345 21.8773 25.1951 22.1088C24.9556 22.3403 24.8211 22.6543 24.8211 22.9817V23.8702H23.9022C23.5635 23.8702 23.2387 24.0002 22.9993 24.2317C22.7598 24.4633 22.6253 24.7773 22.6253 25.1047C22.6253 25.4321 22.7598 25.746 22.9993 25.9776C23.2387 26.2091 23.5635 26.3391 23.9022 26.3391H24.8211V27.2276C24.8211 27.555 24.9556 27.869 25.1951 28.1005C25.4345 28.332 25.7593 28.4621 26.0979 28.4621C26.4366 28.4621 26.7613 28.332 27.0008 28.1005C27.2402 27.869 27.3748 27.555 27.3748 27.2276V26.3391H28.2937C28.6323 26.3391 28.9571 26.2091 29.1966 25.9776C29.436 25.746 29.5705 25.4321 29.5705 25.1047C29.5705 24.7773 29.436 24.4633 29.1966 24.2317C28.9571 24.0002 28.6323 23.8702 28.2937 23.8702Z" fill="#00A2FF"/>
</g>
<defs>
<clipPath id="clip0">
<rect width="33" height="31.7778" fill="white"/>
</clipPath>
</defs>
</svg>
