<svg width="17" height="17" viewBox="0 0 17 17" fill="none" xmlns="http://www.w3.org/2000/svg">
<path d="M16.5784 6.919L15.0613 6.73676C14.9063 6.15808 14.6792 5.61136 14.3868 5.10408L15.3299 3.90524C15.4741 3.72096 15.4578 3.43604 15.2912 3.27012L13.7278 1.70612C13.5633 1.54088 13.2777 1.5232 13.0927 1.66736L11.8918 2.61188C11.3866 2.31948 10.8399 2.09236 10.2626 1.93868L10.081 0.4216C10.0531 0.18972 9.83892 0 9.605 0H7.39364C7.15972 0 6.94552 0.18972 6.91832 0.4216L6.73608 1.93868C6.15808 2.09304 5.61068 2.32084 5.10544 2.61256L3.90524 1.6694C3.72164 1.52524 3.43604 1.54224 3.2708 1.70748L1.7068 3.27216C1.54224 3.43672 1.52524 3.72232 1.67008 3.90728L2.61256 5.1068C2.32016 5.61272 2.09304 6.16012 1.93868 6.7388L0.42228 6.92036C0.1904 6.94756 0 7.16176 0 7.39636V9.60772C0 9.84164 0.18972 10.0545 0.42228 10.083L1.93936 10.2653C2.0944 10.8419 2.32084 11.3886 2.61324 11.8946L1.67076 13.0954C1.52728 13.2797 1.5436 13.5646 1.70952 13.7306L3.2708 15.2952C3.43604 15.4598 3.72164 15.4782 3.90524 15.334L5.10612 14.3888C5.61204 14.6812 6.15876 14.909 6.73676 15.0627L6.919 16.5791C6.94688 16.8116 7.1604 17.0007 7.39432 17.0007H9.60568C9.84028 17.0007 10.0538 16.8116 10.081 16.5791L10.2632 15.0627C10.8419 14.9076 11.3886 14.6805 11.8939 14.3888L13.0948 15.332C13.279 15.4761 13.564 15.4591 13.7292 15.2939L15.2925 13.7292C15.4584 13.5646 15.4754 13.279 15.3306 13.0934L14.3868 11.8939C14.6798 11.388 14.9063 10.8412 15.0613 10.2639L16.5777 10.0817C16.8103 10.0538 17 9.84164 17 9.60636V7.395C17.0007 7.15972 16.8116 6.94688 16.5784 6.919ZM8.50068 12.75C6.15332 12.75 4.25068 10.8474 4.25068 8.5C4.25068 6.15264 6.15332 4.25 8.50068 4.25C10.848 4.25 12.7507 6.15264 12.7507 8.5C12.7507 10.8474 10.8487 12.75 8.50068 12.75Z" fill="white"/>
</svg>
