<svg width="26" height="26" viewBox="0 0 26 26" fill="none" xmlns="http://www.w3.org/2000/svg">
<g opacity="0.3">
<path d="M13 26C12.6263 26.0003 12.258 25.9111 11.9265 25.74L0.556372 19.89C0.393989 19.8057 0.257043 19.6802 0.159564 19.5262C0.0620843 19.3721 0.00758421 19.1951 0.00159155 19.0133C-0.00440111 18.8315 0.038316 18.6513 0.125444 18.4913C0.212573 18.3313 0.340993 18.1971 0.497482 18.1025L3.03071 16.5815C3.14685 16.5017 3.27823 16.4463 3.41673 16.4188C3.55524 16.3914 3.69789 16.3923 3.83599 16.4217C3.9741 16.4511 4.10469 16.5083 4.2197 16.5897C4.3347 16.6711 4.43172 16.7751 4.50472 16.8951C4.57772 17.0152 4.62516 17.1489 4.64415 17.2879C4.66315 17.4268 4.65329 17.5682 4.61515 17.7032C4.57701 17.8383 4.51141 17.9642 4.42242 18.0731C4.33342 18.182 4.22291 18.2716 4.09768 18.3365L3.13547 18.915L12.8757 23.946C12.912 23.9648 12.9524 23.9746 12.9934 23.9746C13.0345 23.9746 13.0749 23.9648 13.1113 23.946L22.8515 18.915L21.8957 18.343C21.7705 18.2781 21.66 18.1884 21.571 18.0795C21.482 17.9706 21.4164 17.8448 21.3783 17.7097C21.3401 17.5747 21.3303 17.4333 21.3493 17.2944C21.3683 17.1554 21.4157 17.0217 21.4887 16.9016C21.5617 16.7816 21.6587 16.6776 21.7737 16.5962C21.8887 16.5148 22.0193 16.4576 22.1574 16.4282C22.2955 16.3988 22.4382 16.3979 22.5767 16.4253C22.7152 16.4528 22.8466 16.5082 22.9627 16.588L25.4959 18.109C25.6524 18.2036 25.7808 18.3378 25.868 18.4978C25.9551 18.6578 25.9978 18.838 25.9918 19.0198C25.9858 19.2016 25.9313 19.3786 25.8339 19.5326C25.7364 19.6867 25.5994 19.8122 25.437 19.8965L14.067 25.7465C13.7368 25.9143 13.3709 26.0013 13 26Z" fill="#1A1853"/>
<path d="M13 20.514C12.6263 20.5143 12.258 20.4251 11.9265 20.254L0.556372 14.404C0.393989 14.3197 0.257043 14.1942 0.159564 14.0402C0.0620843 13.8861 0.00758421 13.7091 0.00159155 13.5273C-0.00440111 13.3455 0.038316 13.1653 0.125444 13.0053C0.212573 12.8453 0.340993 12.7111 0.497482 12.6165L3.0765 11.0695C3.19263 10.9897 3.32401 10.9343 3.46252 10.9068C3.60102 10.8794 3.74375 10.8803 3.88186 10.9097C4.01997 10.9391 4.15056 10.9963 4.26556 11.0777C4.38057 11.1591 4.47751 11.2631 4.55051 11.3832C4.6235 11.5032 4.67095 11.6369 4.68994 11.7758C4.70893 11.9148 4.69907 12.0562 4.66093 12.1912C4.6228 12.3263 4.5572 12.4521 4.4682 12.561C4.37921 12.6699 4.26869 12.7596 4.14347 12.8245L3.14194 13.429L12.8821 18.46C12.9185 18.4788 12.959 18.4886 13 18.4886C13.041 18.4886 13.0815 18.4788 13.1178 18.46L22.858 13.429L21.8565 12.8245C21.7313 12.7596 21.6208 12.6699 21.5318 12.561C21.4428 12.4521 21.3772 12.3263 21.339 12.1912C21.3009 12.0562 21.291 11.9148 21.31 11.7758C21.329 11.6369 21.3765 11.5032 21.4495 11.3832C21.5225 11.2631 21.6194 11.1591 21.7344 11.0777C21.8494 10.9963 21.98 10.9391 22.1181 10.9097C22.2562 10.8803 22.3989 10.8794 22.5374 10.9068C22.676 10.9343 22.8073 10.9897 22.9235 11.0695L25.5025 12.6165C25.659 12.7111 25.7874 12.8453 25.8745 13.0053C25.9617 13.1653 26.0044 13.3455 25.9984 13.5273C25.9924 13.7091 25.9379 13.8861 25.8404 14.0402C25.7429 14.1942 25.606 14.3197 25.4436 14.404L14.0735 20.254C13.7419 20.4251 13.3737 20.5143 13 20.514Z" fill="#1A1853"/>
<path d="M13 15.028C12.6263 15.0283 12.258 14.9391 11.9265 14.768L0.556372 8.91798C0.393989 8.83374 0.257043 8.70821 0.159564 8.55418C0.0620843 8.40014 0.00758421 8.22315 0.00159155 8.04133C-0.00440111 7.8595 0.038316 7.67935 0.125444 7.51931C0.212573 7.35928 0.340993 7.22508 0.497482 7.13048L11.7956 0.350983C12.1578 0.132976 12.5732 0.0177307 12.9967 0.0177307C13.4202 0.0177307 13.8357 0.132976 14.1978 0.350983L25.4959 7.13048C25.6524 7.22508 25.7808 7.35928 25.868 7.51931C25.9551 7.67935 25.9978 7.8595 25.9918 8.04133C25.9858 8.22315 25.9313 8.40014 25.8339 8.55418C25.7364 8.70821 25.5994 8.83374 25.437 8.91798L14.067 14.768C13.7373 14.9381 13.3715 15.0273 13 15.028ZM3.14194 7.9235L12.8821 12.9545C12.9185 12.9733 12.959 12.9831 13 12.9831C13.041 12.9831 13.0815 12.9733 13.1178 12.9545L22.858 7.9235L13.1309 2.0735C13.0905 2.04876 13.0441 2.03565 12.9967 2.03565C12.9493 2.03565 12.9029 2.04876 12.8625 2.0735L3.14194 7.9235Z" fill="#00A2FF"/>
</g>
</svg>
