<svg width="35" height="35" viewBox="0 0 35 35" fill="none" xmlns="http://www.w3.org/2000/svg">
<path d="M17.4996 35C16.9966 35.0004 16.5008 34.8803 16.0545 34.65L0.748603 26.775C0.53001 26.6616 0.345661 26.4926 0.214438 26.2852C0.0832158 26.0779 0.00985034 25.8396 0.0017833 25.5949C-0.00628374 25.3501 0.05122 25.1076 0.168508 24.8921C0.285796 24.6767 0.45867 24.4961 0.669328 24.3687L4.07944 22.3212C4.23578 22.2138 4.41264 22.1393 4.59909 22.1023C4.78554 22.0653 4.97757 22.0666 5.16348 22.1062C5.34939 22.1457 5.52519 22.2227 5.68 22.3323C5.83482 22.4419 5.96542 22.5818 6.06369 22.7435C6.16195 22.9051 6.22582 23.085 6.25139 23.2721C6.27695 23.4592 6.26368 23.6495 6.21234 23.8313C6.161 24.0131 6.0727 24.1825 5.9529 24.3291C5.83309 24.4757 5.68433 24.5964 5.51575 24.6837L4.22046 25.4625L17.3322 32.235C17.3812 32.2603 17.4356 32.2735 17.4908 32.2735C17.546 32.2735 17.6005 32.2603 17.6495 32.235L30.7612 25.4625L29.4747 24.6925C29.3061 24.6051 29.1573 24.4844 29.0375 24.3378C28.9177 24.1912 28.8294 24.0218 28.7781 23.84C28.7267 23.6583 28.7135 23.468 28.739 23.2809C28.7646 23.0938 28.8285 22.9139 28.9267 22.7522C29.025 22.5906 29.1556 22.4507 29.3104 22.3411C29.4652 22.2314 29.641 22.1545 29.8269 22.1149C30.0128 22.0754 30.2049 22.074 30.3913 22.111C30.5778 22.148 30.7546 22.2225 30.911 22.33L34.3211 24.3775C34.5317 24.5048 34.7046 24.6855 34.8219 24.9009C34.9392 25.1163 34.9967 25.3588 34.9886 25.6036C34.9806 25.8484 34.9072 26.0866 34.776 26.2939C34.6448 26.5013 34.4604 26.6703 34.2418 26.7837L18.9359 34.6587C18.4914 34.8847 17.999 35.0017 17.4996 35Z" fill="#1A1853"/>
<path d="M17.4996 27.615C16.9966 27.6154 16.5009 27.4953 16.0545 27.265L0.748604 19.39C0.53001 19.2766 0.345661 19.1076 0.214438 18.9002C0.0832159 18.6929 0.00985034 18.4546 0.0017833 18.2098C-0.00628374 17.9651 0.05122 17.7226 0.168508 17.5071C0.285796 17.2917 0.45867 17.1111 0.669329 16.9837L4.14108 14.9013C4.29742 14.7938 4.47427 14.7193 4.66072 14.6823C4.84717 14.6453 5.03931 14.6466 5.22522 14.6862C5.41113 14.7258 5.58693 14.8027 5.74175 14.9123C5.89656 15.0219 6.02706 15.1618 6.12532 15.3235C6.22359 15.4851 6.28746 15.665 6.31302 15.8521C6.33859 16.0392 6.32531 16.2295 6.27398 16.4113C6.22264 16.5931 6.13433 16.7625 6.01453 16.9091C5.89473 17.0557 5.74596 17.1764 5.57739 17.2637L4.22918 18.0775L17.341 24.85C17.3899 24.8753 17.4444 24.8885 17.4996 24.8885C17.5548 24.8885 17.6093 24.8753 17.6583 24.85L30.7701 18.0775L29.4219 17.2637C29.2533 17.1764 29.1045 17.0557 28.9847 16.9091C28.8649 16.7625 28.7766 16.5931 28.7253 16.4113C28.6739 16.2295 28.6607 16.0392 28.6862 15.8521C28.7118 15.665 28.7757 15.4851 28.8739 15.3235C28.9722 15.1618 29.1027 15.0219 29.2575 14.9123C29.4123 14.8027 29.5881 14.7258 29.774 14.6862C29.9599 14.6466 30.1521 14.6453 30.3385 14.6823C30.525 14.7193 30.7018 14.7938 30.8582 14.9013L34.3299 16.9837C34.5406 17.1111 34.7134 17.2917 34.8307 17.5071C34.948 17.7226 35.0055 17.9651 34.9975 18.2098C34.9894 18.4546 34.916 18.6929 34.7848 18.9002C34.6536 19.1076 34.4692 19.2766 34.2506 19.39L18.9447 27.265C18.4984 27.4953 18.0027 27.6154 17.4996 27.615Z" fill="#1A1853"/>
<path d="M17.4996 20.23C16.9966 20.2304 16.5008 20.1103 16.0545 19.88L0.748603 12.005C0.53001 11.8916 0.345661 11.7226 0.214438 11.5152C0.0832158 11.3079 0.00985034 11.0696 0.0017833 10.8249C-0.00628374 10.5801 0.05122 10.3376 0.168508 10.1222C0.285796 9.90672 0.45867 9.72607 0.669328 9.59872L15.8783 0.472481C16.3659 0.17901 16.9251 0.0238724 17.4952 0.0238724C18.0654 0.0238724 18.6246 0.17901 19.1121 0.472481L34.3211 9.59872C34.5317 9.72607 34.7046 9.90672 34.8219 10.1222C34.9392 10.3376 34.9967 10.5801 34.9886 10.8249C34.9806 11.0696 34.9072 11.3079 34.776 11.5152C34.6448 11.7226 34.4604 11.8916 34.2418 12.005L18.9359 19.88C18.4922 20.109 17.9997 20.229 17.4996 20.23ZM4.22917 10.6663L17.341 17.4387C17.3899 17.4641 17.4444 17.4772 17.4996 17.4772C17.5548 17.4772 17.6093 17.4641 17.6583 17.4387L30.7701 10.6663L17.6758 2.79125C17.6215 2.75795 17.559 2.7403 17.4952 2.7403C17.4314 2.7403 17.3689 2.75795 17.3146 2.79125L4.22917 10.6663Z" fill="#00A2FF"/>
</svg>
